# xmcd
# 
# Track frame offsets:
#     150
#     1823
#     27623
#     46835
#     68805
#     103370
#     141105
#     147049
#     169249
#     211913
#     213052
#     232318
#     247608
#     263201
#     277171
#     279208
# 
# Disc length: 3973
# 
# Revision: 4
# Processed by: cddbd v1.5.2PL0 Copyright (c) Steve Scherf et al.
# Submitted via: fre:ac v1.0.27
# 
DISCID=e90f8310
DTITLE=Earth, Wind and Fire - Gratitude
DYEAR=1975
DGENRE=R&B
TTITLE0=Introduction By MC Perry Jones
TTITLE1=Africano/Power Medley
TTITLE2=Yearnin' Learnin'
TTITLE3=Devotion
TTITLE4=Sun Goddess
TTITLE5=Reasons
TTITLE6=Sing A Message To You
TTITLE7=Shining Star
TTITLE8=New World Symphony
TTITLE9=Interlude #1
TTITLE10=Sunshine
TTITLE11=Sing A Song
TTITLE12=Gratitude
TTITLE13=Celebrate
TTITLE14=Interlude #2
TTITLE15=Can't Hide Love
EXTD=
EXTT0=
EXTT1=
EXTT2=
EXTT3=
EXTT4=
EXTT5=
EXTT6=
EXTT7=
EXTT8=
EXTT9=
EXTT10=
EXTT11=
EXTT12=
EXTT13=
EXTT14=
EXTT15=
PLAYORDER=
